<svg width="34" height="30" viewBox="0 0 34 30" fill="none" xmlns="http://www.w3.org/2000/svg">
<path fill-rule="evenodd" clip-rule="evenodd" d="M12.963 30H20.3703C25.5722 30 28.173 30 30.0413 28.7743C30.85 28.2437 31.5445 27.5618 32.085 26.7678C33.3333 24.9335 33.3333 22.3798 33.3333 17.2727C33.3333 12.1657 33.3333 9.61202 32.085 7.77767C31.5445 6.98357 30.85 6.30173 30.0413 5.77113C28.8407 4.98355 27.3378 4.70205 25.0367 4.60143C23.9385 4.60143 22.9932 3.78447 22.7778 2.72727C22.4547 1.14148 21.0365 0 19.3895 0H13.9438C12.2967 0 10.8786 1.14148 10.5555 2.72727C10.3402 3.78447 9.39475 4.60143 8.29667 4.60143C5.99555 4.70205 4.49258 4.98355 3.29207 5.77113C2.48325 6.30173 1.7888 6.98357 1.24837 7.77767C1.98682e-07 9.61202 0 12.1657 0 17.2727C0 22.3798 1.98682e-07 24.9335 1.24837 26.7678C1.7888 27.5618 2.48325 28.2437 3.29207 28.7743C5.1604 30 7.76125 30 12.963 30ZM16.6667 10.4545C12.8314 10.4545 9.72222 13.5072 9.72222 17.2727C9.72222 21.0383 12.8314 24.0908 16.6667 24.0908C20.502 24.0908 23.6112 21.0383 23.6112 17.2727C23.6112 13.5072 20.502 10.4545 16.6667 10.4545ZM16.6667 13.1818C14.3655 13.1818 12.5 15.0133 12.5 17.2727C12.5 19.532 14.3655 21.3637 16.6667 21.3637C18.9678 21.3637 20.8333 19.532 20.8333 17.2727C20.8333 15.0133 18.9678 13.1818 16.6667 13.1818ZM24.537 11.8182C24.537 11.0651 25.1588 10.4545 25.926 10.4545H27.7778C28.5448 10.4545 29.1667 11.0651 29.1667 11.8182C29.1667 12.5713 28.5448 13.1818 27.7778 13.1818H25.926C25.1588 13.1818 24.537 12.5713 24.537 11.8182Z" fill="white"/>
</svg>
