<svg width="47" height="47" viewBox="0 0 47 47" fill="none" xmlns="http://www.w3.org/2000/svg">
<circle cx="23.5" cy="23.5" r="23.5" fill="white"/>
<path d="M12.9972 27.4739L11.5101 17.8082C11.4001 17.0944 12.2133 16.6071 12.791 17.0406L17.4242 20.5151C17.5447 20.6053 17.6822 20.67 17.8285 20.7053C17.9748 20.7406 18.1267 20.7457 18.275 20.7203C18.4234 20.6949 18.565 20.6396 18.6912 20.5576C18.8174 20.4757 18.9256 20.3689 19.0091 20.2438L22.8666 14.4584C23.274 13.8472 24.172 13.8472 24.5794 14.4584L28.4369 20.2438C28.5205 20.3689 28.6286 20.4757 28.7549 20.5576C28.8811 20.6396 29.0227 20.6949 29.171 20.7203C29.3193 20.7457 29.4712 20.7406 29.6175 20.7053C29.7638 20.67 29.9013 20.6053 30.0218 20.5151L34.655 17.0406C35.2335 16.6071 36.0459 17.0944 35.9359 17.8082L34.4488 27.4739H12.9972ZM33.33 32.8372H14.116C13.969 32.8372 13.8236 32.8083 13.6878 32.752C13.5521 32.6958 13.4288 32.6134 13.3249 32.5095C13.1151 32.2997 12.9972 32.0151 12.9972 31.7184V29.2617H34.4488V31.7184C34.4488 32.3361 33.9477 32.8372 33.33 32.8372Z" fill="url(#paint0_linear_422_20)"/>
<defs>
<linearGradient id="paint0_linear_422_20" x1="23.723" y1="14" x2="23.723" y2="32.8372" gradientUnits="userSpaceOnUse">
<stop stop-color="#FF9D00"/>
<stop offset="1" stop-color="#FF8000"/>
</linearGradient>
</defs>
</svg>
